<?xml version="1.0" encoding="utf-8"?>
<svg xmlns="http://www.w3.org/2000/svg" xmlns:xlink="http://www.w3.org/1999/xlink" style="margin: auto; background: none; display: block; shape-rendering: auto;" width="200px" height="200px" viewBox="0 0 100 100" preserveAspectRatio="xMidYMid">
<g transform="rotate(0 50 50)">
  <rect x="47" y="27.5" rx="0" ry="0" width="6" height="5" fill="#2c2628">
    <animate attributeName="opacity" values="1;0" keyTimes="0;1" dur="1s" begin="-0.984375s" repeatCount="indefinite"></animate>
  </rect>
</g><g transform="rotate(5.625 50 50)">
  <rect x="47" y="27.5" rx="0" ry="0" width="6" height="5" fill="#2c2628">
    <animate attributeName="opacity" values="1;0" keyTimes="0;1" dur="1s" begin="-0.96875s" repeatCount="indefinite"></animate>
  </rect>
</g><g transform="rotate(11.25 50 50)">
  <rect x="47" y="27.5" rx="0" ry="0" width="6" height="5" fill="#2c2628">
    <animate attributeName="opacity" values="1;0" keyTimes="0;1" dur="1s" begin="-0.953125s" repeatCount="indefinite"></animate>
  </rect>
</g><g transform="rotate(16.875 50 50)">
  <rect x="47" y="27.5" rx="0" ry="0" width="6" height="5" fill="#2c2628">
    <animate attributeName="opacity" values="1;0" keyTimes="0;1" dur="1s" begin="-0.9375s" repeatCount="indefinite"></animate>
  </rect>
</g><g transform="rotate(22.5 50 50)">
  <rect x="47" y="27.5" rx="0" ry="0" width="6" height="5" fill="#2c2628">
    <animate attributeName="opacity" values="1;0" keyTimes="0;1" dur="1s" begin="-0.921875s" repeatCount="indefinite"></animate>
  </rect>
</g><g transform="rotate(28.125 50 50)">
  <rect x="47" y="27.5" rx="0" ry="0" width="6" height="5" fill="#2c2628">
    <animate attributeName="opacity" values="1;0" keyTimes="0;1" dur="1s" begin="-0.90625s" repeatCount="indefinite"></animate>
  </rect>
</g><g transform="rotate(33.75 50 50)">
  <rect x="47" y="27.5" rx="0" ry="0" width="6" height="5" fill="#2c2628">
    <animate attributeName="opacity" values="1;0" keyTimes="0;1" dur="1s" begin="-0.890625s" repeatCount="indefinite"></animate>
  </rect>
</g><g transform="rotate(39.375 50 50)">
  <rect x="47" y="27.5" rx="0" ry="0" width="6" height="5" fill="#2c2628">
    <animate attributeName="opacity" values="1;0" keyTimes="0;1" dur="1s" begin="-0.875s" repeatCount="indefinite"></animate>
  </rect>
</g><g transform="rotate(45 50 50)">
  <rect x="47" y="27.5" rx="0" ry="0" width="6" height="5" fill="#2c2628">
    <animate attributeName="opacity" values="1;0" keyTimes="0;1" dur="1s" begin="-0.859375s" repeatCount="indefinite"></animate>
  </rect>
</g><g transform="rotate(50.625 50 50)">
  <rect x="47" y="27.5" rx="0" ry="0" width="6" height="5" fill="#2c2628">
    <animate attributeName="opacity" values="1;0" keyTimes="0;1" dur="1s" begin="-0.84375s" repeatCount="indefinite"></animate>
  </rect>
</g><g transform="rotate(56.25 50 50)">
  <rect x="47" y="27.5" rx="0" ry="0" width="6" height="5" fill="#2c2628">
    <animate attributeName="opacity" values="1;0" keyTimes="0;1" dur="1s" begin="-0.828125s" repeatCount="indefinite"></animate>
  </rect>
</g><g transform="rotate(61.875 50 50)">
  <rect x="47" y="27.5" rx="0" ry="0" width="6" height="5" fill="#2c2628">
    <animate attributeName="opacity" values="1;0" keyTimes="0;1" dur="1s" begin="-0.8125s" repeatCount="indefinite"></animate>
  </rect>
</g><g transform="rotate(67.5 50 50)">
  <rect x="47" y="27.5" rx="0" ry="0" width="6" height="5" fill="#2c2628">
    <animate attributeName="opacity" values="1;0" keyTimes="0;1" dur="1s" begin="-0.796875s" repeatCount="indefinite"></animate>
  </rect>
</g><g transform="rotate(73.125 50 50)">
  <rect x="47" y="27.5" rx="0" ry="0" width="6" height="5" fill="#2c2628">
    <animate attributeName="opacity" values="1;0" keyTimes="0;1" dur="1s" begin="-0.78125s" repeatCount="indefinite"></animate>
  </rect>
</g><g transform="rotate(78.75 50 50)">
  <rect x="47" y="27.5" rx="0" ry="0" width="6" height="5" fill="#2c2628">
    <animate attributeName="opacity" values="1;0" keyTimes="0;1" dur="1s" begin="-0.765625s" repeatCount="indefinite"></animate>
  </rect>
</g><g transform="rotate(84.375 50 50)">
  <rect x="47" y="27.5" rx="0" ry="0" width="6" height="5" fill="#2c2628">
    <animate attributeName="opacity" values="1;0" keyTimes="0;1" dur="1s" begin="-0.75s" repeatCount="indefinite"></animate>
  </rect>
</g><g transform="rotate(90 50 50)">
  <rect x="47" y="27.5" rx="0" ry="0" width="6" height="5" fill="#2c2628">
    <animate attributeName="opacity" values="1;0" keyTimes="0;1" dur="1s" begin="-0.734375s" repeatCount="indefinite"></animate>
  </rect>
</g><g transform="rotate(95.625 50 50)">
  <rect x="47" y="27.5" rx="0" ry="0" width="6" height="5" fill="#2c2628">
    <animate attributeName="opacity" values="1;0" keyTimes="0;1" dur="1s" begin="-0.71875s" repeatCount="indefinite"></animate>
  </rect>
</g><g transform="rotate(101.25 50 50)">
  <rect x="47" y="27.5" rx="0" ry="0" width="6" height="5" fill="#2c2628">
    <animate attributeName="opacity" values="1;0" keyTimes="0;1" dur="1s" begin="-0.703125s" repeatCount="indefinite"></animate>
  </rect>
</g><g transform="rotate(106.875 50 50)">
  <rect x="47" y="27.5" rx="0" ry="0" width="6" height="5" fill="#2c2628">
    <animate attributeName="opacity" values="1;0" keyTimes="0;1" dur="1s" begin="-0.6875s" repeatCount="indefinite"></animate>
  </rect>
</g><g transform="rotate(112.5 50 50)">
  <rect x="47" y="27.5" rx="0" ry="0" width="6" height="5" fill="#2c2628">
    <animate attributeName="opacity" values="1;0" keyTimes="0;1" dur="1s" begin="-0.671875s" repeatCount="indefinite"></animate>
  </rect>
</g><g transform="rotate(118.125 50 50)">
  <rect x="47" y="27.5" rx="0" ry="0" width="6" height="5" fill="#2c2628">
    <animate attributeName="opacity" values="1;0" keyTimes="0;1" dur="1s" begin="-0.65625s" repeatCount="indefinite"></animate>
  </rect>
</g><g transform="rotate(123.75 50 50)">
  <rect x="47" y="27.5" rx="0" ry="0" width="6" height="5" fill="#2c2628">
    <animate attributeName="opacity" values="1;0" keyTimes="0;1" dur="1s" begin="-0.640625s" repeatCount="indefinite"></animate>
  </rect>
</g><g transform="rotate(129.375 50 50)">
  <rect x="47" y="27.5" rx="0" ry="0" width="6" height="5" fill="#2c2628">
    <animate attributeName="opacity" values="1;0" keyTimes="0;1" dur="1s" begin="-0.625s" repeatCount="indefinite"></animate>
  </rect>
</g><g transform="rotate(135 50 50)">
  <rect x="47" y="27.5" rx="0" ry="0" width="6" height="5" fill="#2c2628">
    <animate attributeName="opacity" values="1;0" keyTimes="0;1" dur="1s" begin="-0.609375s" repeatCount="indefinite"></animate>
  </rect>
</g><g transform="rotate(140.625 50 50)">
  <rect x="47" y="27.5" rx="0" ry="0" width="6" height="5" fill="#2c2628">
    <animate attributeName="opacity" values="1;0" keyTimes="0;1" dur="1s" begin="-0.59375s" repeatCount="indefinite"></animate>
  </rect>
</g><g transform="rotate(146.25 50 50)">
  <rect x="47" y="27.5" rx="0" ry="0" width="6" height="5" fill="#2c2628">
    <animate attributeName="opacity" values="1;0" keyTimes="0;1" dur="1s" begin="-0.578125s" repeatCount="indefinite"></animate>
  </rect>
</g><g transform="rotate(151.875 50 50)">
  <rect x="47" y="27.5" rx="0" ry="0" width="6" height="5" fill="#2c2628">
    <animate attributeName="opacity" values="1;0" keyTimes="0;1" dur="1s" begin="-0.5625s" repeatCount="indefinite"></animate>
  </rect>
</g><g transform="rotate(157.5 50 50)">
  <rect x="47" y="27.5" rx="0" ry="0" width="6" height="5" fill="#2c2628">
    <animate attributeName="opacity" values="1;0" keyTimes="0;1" dur="1s" begin="-0.546875s" repeatCount="indefinite"></animate>
  </rect>
</g><g transform="rotate(163.125 50 50)">
  <rect x="47" y="27.5" rx="0" ry="0" width="6" height="5" fill="#2c2628">
    <animate attributeName="opacity" values="1;0" keyTimes="0;1" dur="1s" begin="-0.53125s" repeatCount="indefinite"></animate>
  </rect>
</g><g transform="rotate(168.75 50 50)">
  <rect x="47" y="27.5" rx="0" ry="0" width="6" height="5" fill="#2c2628">
    <animate attributeName="opacity" values="1;0" keyTimes="0;1" dur="1s" begin="-0.515625s" repeatCount="indefinite"></animate>
  </rect>
</g><g transform="rotate(174.375 50 50)">
  <rect x="47" y="27.5" rx="0" ry="0" width="6" height="5" fill="#2c2628">
    <animate attributeName="opacity" values="1;0" keyTimes="0;1" dur="1s" begin="-0.5s" repeatCount="indefinite"></animate>
  </rect>
</g><g transform="rotate(180 50 50)">
  <rect x="47" y="27.5" rx="0" ry="0" width="6" height="5" fill="#2c2628">
    <animate attributeName="opacity" values="1;0" keyTimes="0;1" dur="1s" begin="-0.484375s" repeatCount="indefinite"></animate>
  </rect>
</g><g transform="rotate(185.625 50 50)">
  <rect x="47" y="27.5" rx="0" ry="0" width="6" height="5" fill="#2c2628">
    <animate attributeName="opacity" values="1;0" keyTimes="0;1" dur="1s" begin="-0.46875s" repeatCount="indefinite"></animate>
  </rect>
</g><g transform="rotate(191.25 50 50)">
  <rect x="47" y="27.5" rx="0" ry="0" width="6" height="5" fill="#2c2628">
    <animate attributeName="opacity" values="1;0" keyTimes="0;1" dur="1s" begin="-0.453125s" repeatCount="indefinite"></animate>
  </rect>
</g><g transform="rotate(196.875 50 50)">
  <rect x="47" y="27.5" rx="0" ry="0" width="6" height="5" fill="#2c2628">
    <animate attributeName="opacity" values="1;0" keyTimes="0;1" dur="1s" begin="-0.4375s" repeatCount="indefinite"></animate>
  </rect>
</g><g transform="rotate(202.5 50 50)">
  <rect x="47" y="27.5" rx="0" ry="0" width="6" height="5" fill="#2c2628">
    <animate attributeName="opacity" values="1;0" keyTimes="0;1" dur="1s" begin="-0.421875s" repeatCount="indefinite"></animate>
  </rect>
</g><g transform="rotate(208.125 50 50)">
  <rect x="47" y="27.5" rx="0" ry="0" width="6" height="5" fill="#2c2628">
    <animate attributeName="opacity" values="1;0" keyTimes="0;1" dur="1s" begin="-0.40625s" repeatCount="indefinite"></animate>
  </rect>
</g><g transform="rotate(213.75 50 50)">
  <rect x="47" y="27.5" rx="0" ry="0" width="6" height="5" fill="#2c2628">
    <animate attributeName="opacity" values="1;0" keyTimes="0;1" dur="1s" begin="-0.390625s" repeatCount="indefinite"></animate>
  </rect>
</g><g transform="rotate(219.375 50 50)">
  <rect x="47" y="27.5" rx="0" ry="0" width="6" height="5" fill="#2c2628">
    <animate attributeName="opacity" values="1;0" keyTimes="0;1" dur="1s" begin="-0.375s" repeatCount="indefinite"></animate>
  </rect>
</g><g transform="rotate(225 50 50)">
  <rect x="47" y="27.5" rx="0" ry="0" width="6" height="5" fill="#2c2628">
    <animate attributeName="opacity" values="1;0" keyTimes="0;1" dur="1s" begin="-0.359375s" repeatCount="indefinite"></animate>
  </rect>
</g><g transform="rotate(230.625 50 50)">
  <rect x="47" y="27.5" rx="0" ry="0" width="6" height="5" fill="#2c2628">
    <animate attributeName="opacity" values="1;0" keyTimes="0;1" dur="1s" begin="-0.34375s" repeatCount="indefinite"></animate>
  </rect>
</g><g transform="rotate(236.25 50 50)">
  <rect x="47" y="27.5" rx="0" ry="0" width="6" height="5" fill="#2c2628">
    <animate attributeName="opacity" values="1;0" keyTimes="0;1" dur="1s" begin="-0.328125s" repeatCount="indefinite"></animate>
  </rect>
</g><g transform="rotate(241.875 50 50)">
  <rect x="47" y="27.5" rx="0" ry="0" width="6" height="5" fill="#2c2628">
    <animate attributeName="opacity" values="1;0" keyTimes="0;1" dur="1s" begin="-0.3125s" repeatCount="indefinite"></animate>
  </rect>
</g><g transform="rotate(247.5 50 50)">
  <rect x="47" y="27.5" rx="0" ry="0" width="6" height="5" fill="#2c2628">
    <animate attributeName="opacity" values="1;0" keyTimes="0;1" dur="1s" begin="-0.296875s" repeatCount="indefinite"></animate>
  </rect>
</g><g transform="rotate(253.125 50 50)">
  <rect x="47" y="27.5" rx="0" ry="0" width="6" height="5" fill="#2c2628">
    <animate attributeName="opacity" values="1;0" keyTimes="0;1" dur="1s" begin="-0.28125s" repeatCount="indefinite"></animate>
  </rect>
</g><g transform="rotate(258.75 50 50)">
  <rect x="47" y="27.5" rx="0" ry="0" width="6" height="5" fill="#2c2628">
    <animate attributeName="opacity" values="1;0" keyTimes="0;1" dur="1s" begin="-0.265625s" repeatCount="indefinite"></animate>
  </rect>
</g><g transform="rotate(264.375 50 50)">
  <rect x="47" y="27.5" rx="0" ry="0" width="6" height="5" fill="#2c2628">
    <animate attributeName="opacity" values="1;0" keyTimes="0;1" dur="1s" begin="-0.25s" repeatCount="indefinite"></animate>
  </rect>
</g><g transform="rotate(270 50 50)">
  <rect x="47" y="27.5" rx="0" ry="0" width="6" height="5" fill="#2c2628">
    <animate attributeName="opacity" values="1;0" keyTimes="0;1" dur="1s" begin="-0.234375s" repeatCount="indefinite"></animate>
  </rect>
</g><g transform="rotate(275.625 50 50)">
  <rect x="47" y="27.5" rx="0" ry="0" width="6" height="5" fill="#2c2628">
    <animate attributeName="opacity" values="1;0" keyTimes="0;1" dur="1s" begin="-0.21875s" repeatCount="indefinite"></animate>
  </rect>
</g><g transform="rotate(281.25 50 50)">
  <rect x="47" y="27.5" rx="0" ry="0" width="6" height="5" fill="#2c2628">
    <animate attributeName="opacity" values="1;0" keyTimes="0;1" dur="1s" begin="-0.203125s" repeatCount="indefinite"></animate>
  </rect>
</g><g transform="rotate(286.875 50 50)">
  <rect x="47" y="27.5" rx="0" ry="0" width="6" height="5" fill="#2c2628">
    <animate attributeName="opacity" values="1;0" keyTimes="0;1" dur="1s" begin="-0.1875s" repeatCount="indefinite"></animate>
  </rect>
</g><g transform="rotate(292.5 50 50)">
  <rect x="47" y="27.5" rx="0" ry="0" width="6" height="5" fill="#2c2628">
    <animate attributeName="opacity" values="1;0" keyTimes="0;1" dur="1s" begin="-0.171875s" repeatCount="indefinite"></animate>
  </rect>
</g><g transform="rotate(298.125 50 50)">
  <rect x="47" y="27.5" rx="0" ry="0" width="6" height="5" fill="#2c2628">
    <animate attributeName="opacity" values="1;0" keyTimes="0;1" dur="1s" begin="-0.15625s" repeatCount="indefinite"></animate>
  </rect>
</g><g transform="rotate(303.75 50 50)">
  <rect x="47" y="27.5" rx="0" ry="0" width="6" height="5" fill="#2c2628">
    <animate attributeName="opacity" values="1;0" keyTimes="0;1" dur="1s" begin="-0.140625s" repeatCount="indefinite"></animate>
  </rect>
</g><g transform="rotate(309.375 50 50)">
  <rect x="47" y="27.5" rx="0" ry="0" width="6" height="5" fill="#2c2628">
    <animate attributeName="opacity" values="1;0" keyTimes="0;1" dur="1s" begin="-0.125s" repeatCount="indefinite"></animate>
  </rect>
</g><g transform="rotate(315 50 50)">
  <rect x="47" y="27.5" rx="0" ry="0" width="6" height="5" fill="#2c2628">
    <animate attributeName="opacity" values="1;0" keyTimes="0;1" dur="1s" begin="-0.109375s" repeatCount="indefinite"></animate>
  </rect>
</g><g transform="rotate(320.625 50 50)">
  <rect x="47" y="27.5" rx="0" ry="0" width="6" height="5" fill="#2c2628">
    <animate attributeName="opacity" values="1;0" keyTimes="0;1" dur="1s" begin="-0.09375s" repeatCount="indefinite"></animate>
  </rect>
</g><g transform="rotate(326.25 50 50)">
  <rect x="47" y="27.5" rx="0" ry="0" width="6" height="5" fill="#2c2628">
    <animate attributeName="opacity" values="1;0" keyTimes="0;1" dur="1s" begin="-0.078125s" repeatCount="indefinite"></animate>
  </rect>
</g><g transform="rotate(331.875 50 50)">
  <rect x="47" y="27.5" rx="0" ry="0" width="6" height="5" fill="#2c2628">
    <animate attributeName="opacity" values="1;0" keyTimes="0;1" dur="1s" begin="-0.0625s" repeatCount="indefinite"></animate>
  </rect>
</g><g transform="rotate(337.5 50 50)">
  <rect x="47" y="27.5" rx="0" ry="0" width="6" height="5" fill="#2c2628">
    <animate attributeName="opacity" values="1;0" keyTimes="0;1" dur="1s" begin="-0.046875s" repeatCount="indefinite"></animate>
  </rect>
</g><g transform="rotate(343.125 50 50)">
  <rect x="47" y="27.5" rx="0" ry="0" width="6" height="5" fill="#2c2628">
    <animate attributeName="opacity" values="1;0" keyTimes="0;1" dur="1s" begin="-0.03125s" repeatCount="indefinite"></animate>
  </rect>
</g><g transform="rotate(348.75 50 50)">
  <rect x="47" y="27.5" rx="0" ry="0" width="6" height="5" fill="#2c2628">
    <animate attributeName="opacity" values="1;0" keyTimes="0;1" dur="1s" begin="-0.015625s" repeatCount="indefinite"></animate>
  </rect>
</g><g transform="rotate(354.375 50 50)">
  <rect x="47" y="27.5" rx="0" ry="0" width="6" height="5" fill="#2c2628">
    <animate attributeName="opacity" values="1;0" keyTimes="0;1" dur="1s" begin="0s" repeatCount="indefinite"></animate>
  </rect>
</g>
<!-- [ldio] generated by https://loading.io/ --></svg>